<?xml version="1.0" encoding="UTF-8" standalone="no"?>
<svg
   width="720"
   height="720"
   overflow="hidden"
   version="1.1"
   id="svg12"
   xmlns="http://www.w3.org/2000/svg"
   xmlns:svg="http://www.w3.org/2000/svg">
  <defs
     id="defs12" />
  <g
     transform="matrix(1.5206735,0,0,1.5206735,-617.53497,-190.61078)"
     id="g12">
    <g
       id="g11">
      <g
         id="g10">
        <text
           font-family="Arial, Arial_MSFontService, sans-serif"
           font-weight="700"
           font-size="117px"
           transform="matrix(0.666907,0,0,0.66624,519.556,390)"
           id="text1">ERENITY</text>
        <path
           d="m 164.295,322.793 h 59.315 v 8.921 h -59.315 z"
           transform="matrix(1.001,0,0,1,283.004,11.3616)"
           id="path1" />
        <path
           d="m 164.295,344.839 h 70.401 v 8.921 h -70.401 z"
           transform="matrix(1.001,0,0,1,283.004,11.3616)"
           id="path2" />
        <path
           d="m 144.707,369.75 h 89.996 v 8.921 h -89.996 z"
           transform="matrix(1.001,0,0,1,283.004,11.3616)"
           id="path3" />
        <path
           d="m 153.262,333.8 h 30.993 v 8.921 h -30.993 z"
           transform="matrix(0,1,-1.001,0,790.534,180.866)"
           id="path4" />
        <path
           d="m 213.33,357.291 h 33.832 v 8.921 H 213.33 Z"
           transform="matrix(0,1,-1.001,0,875.591,142.877)"
           id="path5" />
        <path
           d="m 135.4,360.443 h 27.536 v 8.92 H 135.4 Z"
           transform="matrix(0,1,-1.001,0,797.589,227.097)"
           id="path6" />
        <path
           d="m 211.311,326.164 h 15.67 v 8.921 h -15.67 z"
           transform="matrix(0,1,-1.001,0,833.336,122.837)"
           id="path7" />
        <path
           d="m 144.707,351.135 h 15.67 v 8.921 h -15.67 z"
           transform="matrix(-1.001,0,0,-1,588.394,722.553)"
           id="path8" />
        <path
           d="m 186.974,336.991 h 15.67 v 2.545 h -15.67 z"
           transform="matrix(-1.001,0,0,-1,673.018,687.888)"
           id="path9" />
        <path
           d="m 186.974,360.483 h 15.67 v 2.545 h -15.67 z"
           transform="matrix(-1.001,0,0,-1,673.018,734.872)"
           id="path10" />
      </g>
    </g>
  </g>
</svg>
