<svg xmlns:xlink="http://www.w3.org/1999/xlink" width="178" height="25" viewBox="0 0 178 25" fill="none" xmlns="http://www.w3.org/2000/svg" style=""><path d="M80.139 19.3371H90.6661C91.9345 19.3371 92.9654 20.3721 92.9654 21.6456C92.9615 22.8999 91.9422 23.9157 90.6929 23.9119C90.6852 23.9119 90.6737 23.9119 90.6661 23.9119H77.6021C76.1995 23.9234 75.0537 22.7884 75.0422 21.3802C75.0422 21.3686 75.0422 21.3532 75.0422 21.3417V2.91945C75.0345 1.51123 76.165 0.360805 77.5676 0.35311C77.5791 0.35311 77.5906 0.35311 77.6021 0.35311H90.4859C91.7544 0.35311 92.7853 1.38811 92.7853 2.66166C92.7814 3.91597 91.7621 4.93173 90.5128 4.92789C90.5051 4.92789 90.4936 4.92789 90.4859 4.92789H80.139V19.3371Z" fill="#faf5ff"></path><path d="M88.6344 12.1058C88.6344 13.5948 87.4349 14.7991 85.9519 14.7991C84.4688 14.7991 83.2693 13.5948 83.2693 12.1058C83.2693 10.6168 84.4688 9.41247 85.9519 9.41247C87.4349 9.41247 88.6344 10.6168 88.6344 12.1058Z" fill="#faf5ff"></path><path d="M108.374 0.37842H101.86C100.457 0.366877 99.3152 1.49807 99.3037 2.90628C99.3037 2.91783 99.3037 2.93322 99.3037 2.94476V21.3324C99.3114 22.7483 100.45 23.891 101.86 23.9026C103.213 23.9641 104.358 22.9099 104.42 21.5517C104.42 21.5363 104.42 21.5171 104.42 21.5017V5.01091H108.371C112.552 5.01091 115.376 7.91199 115.376 12.0443V12.1097C115.376 15.7765 113.153 18.4198 109.731 18.9738C108.447 18.9738 107.405 20.0203 107.405 21.3093C107.405 22.5982 108.447 23.6448 109.731 23.6448C109.904 23.6448 110.076 23.6255 110.245 23.5871C116.514 22.7868 120.706 18.0196 120.706 12.0443V11.9789C120.706 5.41106 115.659 0.37842 108.355 0.37842" fill="#faf5ff"></path><path d="M144.949 12.1937V12.1245C144.949 8.12684 142.029 4.79098 137.91 4.79098C133.79 4.79098 130.935 8.05758 130.935 12.0591V12.1245C130.935 16.126 133.859 19.4618 137.979 19.4618C142.098 19.4618 144.949 16.1914 144.949 12.1937ZM125.593 12.1937V12.1245C125.593 5.49124 130.805 0.0584475 137.979 0.0584475C145.152 0.0584475 150.295 5.42583 150.295 12.0591V12.1245C150.295 18.7616 145.08 24.1944 137.91 24.1944C130.74 24.1944 125.593 18.8308 125.593 12.1937Z" fill="#faf5ff"></path><path d="M5.11224 21.3382C5.11224 22.7541 3.97024 23.9045 2.55616 23.9045C1.14591 23.9084 8.75016e-05 22.758 8.75016e-05 21.3421V2.93521C-0.0114091 1.53084 1.11142 0.380417 2.51018 0.368874C2.5255 0.368874 2.54083 0.368874 2.55616 0.368874H15.5856C16.8694 0.42274 17.8658 1.50776 17.816 2.7967C17.7661 4.01254 16.7966 4.98598 15.5856 5.03599H5.11224V21.3382Z" fill="#faf5ff"></path><path d="M13.3901 11.9734C13.3901 13.4624 12.1906 14.6667 10.7075 14.6667C9.22448 14.6667 8.02501 13.4624 8.02501 11.9734C8.02501 10.4843 9.22448 9.28005 10.7075 9.28005C12.1906 9.28005 13.3901 10.4843 13.3901 11.9734Z" fill="#faf5ff"></path><path d="M55.5825 19.3371H66.1096C67.378 19.3371 68.4089 20.3721 68.4089 21.6456C68.405 22.8999 67.3857 23.9157 66.1364 23.9119C66.1287 23.9119 66.1172 23.9119 66.1096 23.9119H53.0801C51.6775 23.9234 50.5317 22.7884 50.5202 21.3802C50.5202 21.3686 50.5202 21.3532 50.5202 21.3417V2.91945C50.5126 1.51123 51.6431 0.360805 53.0456 0.35311C53.0571 0.35311 53.0686 0.35311 53.0801 0.35311H65.9601C67.2286 0.35311 68.2594 1.38811 68.2594 2.66166C68.2518 3.91982 67.2324 4.93558 65.9793 4.92789C65.9716 4.92789 65.9678 4.92789 65.9601 4.92789H55.6132L55.5825 19.3371Z" fill="#faf5ff"></path><path d="M64.0971 12.1058C64.0971 13.5948 62.8976 14.7991 61.4146 14.7991C59.9315 14.7991 58.7321 13.5948 58.7321 12.1058C58.7321 10.6168 59.9315 9.41247 61.4146 9.41247C62.89 9.42401 64.0856 10.6245 64.0971 12.1058Z" fill="#faf5ff"></path><path d="M34.1535 15.6942C36.6482 15.6942 38.1466 17.0332 38.1466 19.0031V21.3117C38.093 22.7353 39.1967 23.9319 40.6146 23.9858C42.0325 24.0396 43.2243 22.9315 43.2779 21.5079C43.2779 21.4425 43.2779 21.3732 43.2779 21.3078V18.5068C43.2779 16.5138 42.638 15.0016 40.7717 13.3934C42.6533 11.7774 43.2818 9.54577 43.2818 7.53733V7.47193C43.2818 5.10566 42.2624 0.350045 34.4907 0.350045H26.3933C24.9907 0.338502 23.8411 1.46969 23.8296 2.87791C23.8296 2.8933 23.8296 2.90869 23.8296 2.92408V21.304C23.8296 22.7238 24.9792 23.878 26.3933 23.878C27.8074 23.878 28.9571 22.7238 28.9571 21.304V5.01717H34.05C36.9165 5.01717 38.2884 6.12912 38.2884 8.076C38.2884 9.7497 36.9663 11.1541 34.1535 11.1541H33.9466C32.6934 11.1502 31.6741 12.166 31.6664 13.4203C31.6626 14.6785 32.6743 15.7019 33.9274 15.7096L34.1535 15.6942Z" fill="#faf5ff"></path><path d="M178.013 21.1916C178.013 22.6806 176.814 23.8849 175.331 23.8849C173.848 23.8849 172.648 22.6806 172.648 21.1916C172.648 19.7026 173.848 18.4983 175.331 18.4983C176.814 18.4983 178.013 19.7026 178.013 21.1916Z" fill="#faf5ff"></path><path d="M177.736 3.84742C178.384 2.75086 178.043 1.33495 176.97 0.653931C175.878 -0.0309383 174.441 0.276868 173.724 1.35419L167.332 11.7965L161.158 1.69663C160.687 0.857853 159.794 0.346125 158.836 0.361515H158.276C156.874 0.349972 155.732 1.48116 155.72 2.88938C155.72 2.90092 155.72 2.91631 155.72 2.92785V21.3962C155.705 22.7621 156.797 23.8818 158.158 23.8972C158.173 23.8972 158.192 23.8972 158.207 23.8972C159.587 23.9126 160.718 22.8083 160.733 21.4232C160.733 21.4155 160.733 21.4039 160.733 21.3962V9.93045L165.151 16.7715C165.68 17.5717 166.347 18.0719 167.274 18.0719C168.202 18.0719 168.869 17.5717 169.401 16.7715L173.877 9.67266L177.736 3.84742Z" fill="#faf5ff"></path></svg>